<svg width="64" height="64" viewBox="0 0 64 64" fill="none" xmlns="http://www.w3.org/2000/svg">
<g clip-path="url(#clip0)">
<rect width="64" height="64" fill="#DFB59B"/>
<mask id="mask0" mask-type="alpha" maskUnits="userSpaceOnUse" x="46" y="15" width="11" height="14">
<path fill-rule="evenodd" clip-rule="evenodd" d="M46.6777 15.2128H56.2573V28.6402H46.6777V15.2128Z" fill="white"/>
</mask>
<g mask="url(#mask0)">
<path fill-rule="evenodd" clip-rule="evenodd" d="M55.822 28.3372C55.127 28.4454 54.2799 28.6403 51.6952 28.6403C48.8715 28.6403 46.6777 27.8826 46.6777 24.2034L46.6789 19.6495C46.6789 15.9702 48.8725 15.2128 51.6962 15.2128C54.2809 15.2128 55.128 15.4075 55.823 15.5157C56.1489 15.5591 56.2573 15.6673 56.2573 15.9702V17.3554C56.2573 17.5935 56.0619 17.7882 55.823 17.7882H51.3922C50.1323 17.7882 49.6763 18.2211 49.6763 19.6495V20.5148H55.5625C55.8012 20.5148 55.9968 20.7098 55.9968 20.9478V22.5061C55.9968 22.7441 55.8012 22.9388 55.5625 22.9388H49.6763L49.6751 24.2034C49.6751 25.6318 50.1313 26.0648 51.3912 26.0648H55.822C56.0611 26.0648 56.2563 26.2595 56.2563 26.4975V27.8826C56.2563 28.1857 56.1477 28.2938 55.822 28.3372Z" fill="#333333"/>
</g>
<path fill-rule="evenodd" clip-rule="evenodd" d="M30.2826 15.951L28.1378 27.9505C28.0936 28.1697 27.918 28.3668 27.698 28.3668H27.4782C27.2802 28.3668 27.1704 28.2135 27.1704 28.0382V27.9505L29.3152 15.951C29.3591 15.732 29.535 15.5349 29.755 15.5349H29.9747C30.1726 15.5349 30.2826 15.6883 30.2826 15.8635V15.951Z" fill="#333333"/>
<mask id="mask1" mask-type="alpha" maskUnits="userSpaceOnUse" x="7" y="15" width="18" height="14">
<path fill-rule="evenodd" clip-rule="evenodd" d="M7.625 15.5348H24.7933V28.3667H7.625V15.5348Z" fill="white"/>
</mask>
<g mask="url(#mask1)">
<path fill-rule="evenodd" clip-rule="evenodd" d="M24.793 15.9028L23.0186 26.6136C22.8232 27.9771 22.1933 28.3667 21.0636 28.3667H19.891C18.9134 28.3667 18.3924 27.8906 18.0882 26.6353L16.3721 21.2512C16.3286 21.0563 16.3286 21.0129 16.242 21.0129C16.1552 21.0129 16.1334 21.0563 16.0899 21.2512L14.374 26.6353C14.07 27.8906 13.5486 28.3667 12.5712 28.3667H11.3984C10.2689 28.3667 9.63897 27.9771 9.44357 26.6136L7.62451 15.9028V15.8379C7.62451 15.643 7.79836 15.5348 7.99376 15.5348H10.2963C10.4699 15.5348 10.6438 15.6864 10.6653 15.9244L12.0064 25.4233C12.0283 25.618 12.0283 25.7479 12.115 25.7479C12.202 25.7479 12.202 25.618 12.2453 25.4233L14.1133 19.5845C14.2438 19.0652 14.5478 18.6108 15.4815 18.6108H16.9805C17.9144 18.6108 18.2184 19.0652 18.3489 19.5845L20.2167 25.4233C20.2602 25.618 20.2602 25.7479 20.3471 25.7479C20.4339 25.7479 20.4339 25.618 20.4556 25.4233L21.7519 15.9244C21.7739 15.6864 21.9475 15.5348 22.1212 15.5348H24.4235C24.6193 15.5348 24.793 15.643 24.793 15.8379V15.9028Z" fill="#333333"/>
</g>
<path fill-rule="evenodd" clip-rule="evenodd" d="M43.3825 15.5347H43.1184C42.8988 15.5347 42.7449 15.7319 42.7008 15.9511L40.7079 27.2721C40.6857 27.3596 40.5757 27.4473 40.5538 27.4473C40.5499 27.4473 40.5479 27.4455 40.5443 27.4451V27.4447C40.538 27.4443 40.5338 27.4411 40.528 27.4401C40.4639 27.4267 40.4411 27.3702 40.422 27.2934L36.8324 16.2138C36.7007 15.8415 36.4148 15.5347 35.8435 15.5347C35.8143 15.5347 35.7845 15.5359 35.7545 15.5382V15.5347C35.7406 15.5357 35.7265 15.5378 35.7126 15.5392V15.5347C35.2759 15.5809 34.7741 15.8647 34.6343 16.6004L32.6079 27.9506V28.0383C32.6079 28.2133 32.7179 28.3667 32.9155 28.3667H33.1355C33.3553 28.3667 33.5313 28.1695 33.5751 27.9506L35.6016 16.6004C35.6203 16.5069 35.6707 16.4633 35.7126 16.4521V16.4565C35.7197 16.4547 35.7271 16.4515 35.7335 16.4515C35.7406 16.4515 35.7474 16.4545 35.7545 16.4551V16.4585C35.8349 16.4679 35.911 16.5275 35.9314 16.6082L39.5205 27.6659C39.696 28.2121 39.9808 28.3661 40.528 28.3667C40.5294 28.3667 40.5306 28.3669 40.5318 28.3669C40.536 28.3669 40.5403 28.3663 40.5443 28.3663V28.3669C41.0888 28.3606 41.5662 27.9676 41.697 27.2721L43.6901 15.9511V15.8633C43.6901 15.6883 43.6022 15.5347 43.3825 15.5347Z" fill="#333333"/>
<path fill-rule="evenodd" clip-rule="evenodd" d="M39.7346 71.5L29.375 65.358L43.3905 41.125L53.75 47.2669L39.7346 71.5Z" fill="#FA6400"/>
<path fill-rule="evenodd" clip-rule="evenodd" d="M0 55.2903V81.375H3.86013L20.125 53.2406L6.02107 44.875L0 55.2903Z" fill="#5CB79F"/>
<path fill-rule="evenodd" clip-rule="evenodd" d="M31.9843 58.5L21.875 52.6234L25.2657 46.875L35.375 52.7517L31.9843 58.5Z" fill="#B71277"/>
<path fill-rule="evenodd" clip-rule="evenodd" d="M41 72.177L64.9766 85.875L124.183 62.933L64 30.875L41 72.177Z" fill="#F75F75"/>
<path fill-rule="evenodd" clip-rule="evenodd" d="M0 39.7534L20.7138 52L25.25 44.1784L0 29.25V39.7534Z" fill="#DF3378"/>
<path fill-rule="evenodd" clip-rule="evenodd" d="M0 50.6359L0.817207 51.125L4.875 44.0426L0 41.125V50.6359Z" fill="#F75F75"/>
<path fill-rule="evenodd" clip-rule="evenodd" d="M21.225 77.125L11.125 71.201L21.4 53.625L31.5 59.549L21.225 77.125Z" fill="#F5B554"/>
</g>
<defs>
<clipPath id="clip0">
<rect width="64" height="64" fill="white"/>
</clipPath>
</defs>
</svg>
